<?xml version="1.0" encoding="UTF-8"?>
<!DOCTYPE svg PUBLIC "-//W3C//DTD SVG 1.1//EN" "http://www.w3.org/Graphics/SVG/1.1/DTD/svg11.dtd">
<svg xmlns="http://www.w3.org/2000/svg" version="1.1" width="3780px" height="3780px" style="shape-rendering:geometricPrecision; text-rendering:geometricPrecision; image-rendering:optimizeQuality; fill-rule:evenodd; clip-rule:evenodd" xmlns:xlink="http://www.w3.org/1999/xlink">
<g><path style="opacity:1" fill="#fefefe" d="M -0.5,-0.5 C 1259.5,-0.5 2519.5,-0.5 3779.5,-0.5C 3779.5,1259.5 3779.5,2519.5 3779.5,3779.5C 2519.5,3779.5 1259.5,3779.5 -0.5,3779.5C -0.5,2519.5 -0.5,1259.5 -0.5,-0.5 Z"/></g>
<g><path style="opacity:1" fill="#000000" d="M 1976.5,630.5 C 2289.83,630.5 2603.17,630.5 2916.5,630.5C 2918.06,768.164 2919.39,905.83 2920.5,1043.5C 2605.83,1043.5 2291.17,1043.5 1976.5,1043.5C 1976.5,905.833 1976.5,768.167 1976.5,630.5 Z"/></g>
<g><path style="opacity:1" fill="#000000" d="M 1975.5,1044.5 C 1975.5,1145.17 1975.5,1245.83 1975.5,1346.5C 1869.33,1346.17 1763.33,1346.5 1657.5,1347.5C 1657.5,1488.17 1657.5,1628.83 1657.5,1769.5C 1656.51,1769.33 1655.84,1769.66 1655.5,1770.5C 1544.1,1823.73 1465.6,1907.73 1420,2022.5C 1387.8,2115.6 1383.8,2209.93 1408,2305.5C 1428.47,2378.81 1465.14,2442.48 1518,2496.5C 1560.36,2541.1 1609.86,2575.43 1666.5,2599.5C 1667.12,2715.52 1628.29,2815.85 1550,2900.5C 1460.15,2999.15 1348.15,3047.82 1214,3046.5C 1078.11,3045.7 965.108,2995.03 875,2894.5C 799.955,2808.47 763.121,2707.97 764.5,2593C 765.942,2457.48 816.942,2344.81 917.5,2255C 995.085,2188.91 1085.08,2152.57 1187.5,2146C 1241.18,2142.56 1293.84,2148.06 1345.5,2162.5C 1345.69,1789.83 1346.36,1417.17 1347.5,1044.5C 1556.83,1044.5 1766.17,1044.5 1975.5,1044.5 Z"/></g>
<g><path style="opacity:1" fill="#6a6a6a" d="M 1976.5,630.5 C 1976.5,768.167 1976.5,905.833 1976.5,1043.5C 2291.17,1043.5 2605.83,1043.5 2920.5,1043.5C 2606,1044.5 2291.33,1044.83 1976.5,1044.5C 1976.5,1145.17 1976.5,1245.83 1976.5,1346.5C 2079.67,1346.17 2182.67,1346.5 2285.5,1347.5C 2182.5,1347.5 2079.5,1347.5 1976.5,1347.5C 1976.83,1360.68 1976.5,1373.68 1975.5,1386.5C 1975.5,1373.5 1975.5,1360.5 1975.5,1347.5C 1869.5,1347.5 1763.5,1347.5 1657.5,1347.5C 1763.33,1346.5 1869.33,1346.17 1975.5,1346.5C 1975.5,1245.83 1975.5,1145.17 1975.5,1044.5C 1975.17,906.332 1975.5,768.332 1976.5,630.5 Z"/></g>
<g><path style="opacity:1" fill="#fefefe" d="M 1657.5,1347.5 C 1763.5,1347.5 1869.5,1347.5 1975.5,1347.5C 1975.5,1360.5 1975.5,1373.5 1975.5,1386.5C 1974.71,1476.83 1974.38,1567.16 1974.5,1657.5C 1973.83,1687.83 1973.17,1718.17 1972.5,1748.5C 1865.04,1719.48 1760.04,1726.48 1657.5,1769.5C 1657.5,1628.83 1657.5,1488.17 1657.5,1347.5 Z"/></g>
<g><path style="opacity:1" fill="#000000" d="M 2285.5,1347.5 C 2285.33,1595.5 2285.5,1843.5 2286,2091.5C 2318.87,2277.95 2261.37,2429.45 2113.5,2546C 2032.82,2605.35 1942.15,2634.19 1841.5,2632.5C 1780.66,2634.31 1722.33,2623.31 1666.5,2599.5C 1666.21,2566.89 1663.21,2534.56 1657.5,2502.5C 1657.5,2258.17 1657.5,2013.83 1657.5,1769.5C 1760.04,1726.48 1865.04,1719.48 1972.5,1748.5C 1972.56,1749.04 1972.89,1749.38 1973.5,1749.5C 1974.5,1718.84 1974.83,1688.17 1974.5,1657.5C 1974.38,1567.16 1974.71,1476.83 1975.5,1386.5C 1976.5,1373.68 1976.83,1360.68 1976.5,1347.5C 2079.5,1347.5 2182.5,1347.5 2285.5,1347.5 Z"/></g>
<g><path style="opacity:1" fill="#6d6d6d" d="M 1974.5,1657.5 C 1974.83,1688.17 1974.5,1718.84 1973.5,1749.5C 1972.89,1749.38 1972.56,1749.04 1972.5,1748.5C 1973.17,1718.17 1973.83,1687.83 1974.5,1657.5 Z"/></g>
<g><path style="opacity:1" fill="#fefefe" d="M 1655.5,1770.5 C 1656.17,2014.5 1656.83,2258.5 1657.5,2502.5C 1663.21,2534.56 1666.21,2566.89 1666.5,2599.5C 1609.86,2575.43 1560.36,2541.1 1518,2496.5C 1465.14,2442.48 1428.47,2378.81 1408,2305.5C 1383.8,2209.93 1387.8,2115.6 1420,2022.5C 1465.6,1907.73 1544.1,1823.73 1655.5,1770.5 Z"/></g>
<g><path style="opacity:1" fill="#c2c2c2" d="M 1655.5,1770.5 C 1655.84,1769.66 1656.51,1769.33 1657.5,1769.5C 1657.5,2013.83 1657.5,2258.17 1657.5,2502.5C 1656.83,2258.5 1656.17,2014.5 1655.5,1770.5 Z"/></g>
</svg>
