<?xml version="1.0" encoding="UTF-8"?>
<!DOCTYPE svg PUBLIC "-//W3C//DTD SVG 1.1//EN" "http://www.w3.org/Graphics/SVG/1.1/DTD/svg11.dtd">
<svg xmlns="http://www.w3.org/2000/svg" version="1.1" width="3780px" height="3780px" style="shape-rendering:geometricPrecision; text-rendering:geometricPrecision; image-rendering:optimizeQuality; fill-rule:evenodd; clip-rule:evenodd" xmlns:xlink="http://www.w3.org/1999/xlink">
<g><path style="opacity:1" fill="#252525" d="M -0.5,-0.5 C 1259.5,-0.5 2519.5,-0.5 3779.5,-0.5C 3779.5,1259.5 3779.5,2519.5 3779.5,3779.5C 2519.5,3779.5 1259.5,3779.5 -0.5,3779.5C -0.5,2519.5 -0.5,1259.5 -0.5,-0.5 Z"/></g>
<g><path style="opacity:1" fill="#fefefe" d="M 1976.5,630.5 C 2289.83,630.5 2603.17,630.5 2916.5,630.5C 2917.99,768.498 2919.32,906.498 2920.5,1044.5C 2605.83,1044.5 2291.17,1044.5 1976.5,1044.5C 1976.5,906.5 1976.5,768.5 1976.5,630.5 Z"/></g>
<g><path style="opacity:1" fill="#fefefe" d="M 1347.5,1044.5 C 1556.83,1044.5 1766.17,1044.5 1975.5,1044.5C 1975.5,1145.17 1975.5,1245.83 1975.5,1346.5C 1869.33,1346.17 1763.33,1346.5 1657.5,1347.5C 1657.5,1488.17 1657.5,1628.83 1657.5,1769.5C 1656.51,1769.33 1655.84,1769.66 1655.5,1770.5C 1545.98,1822.85 1468.15,1905.19 1422,2017.5C 1383.43,2125.57 1382.77,2233.9 1420,2342.5C 1456.81,2435.61 1516.97,2509.78 1600.5,2565C 1621.49,2578.33 1643.49,2589.83 1666.5,2599.5C 1667.19,2714.96 1628.69,2814.96 1551,2899.5C 1452.78,3006.82 1330.61,3055.66 1184.5,3046C 1059.78,3037.39 956.285,2986.56 874,2893.5C 800.556,2808.52 764.056,2709.52 764.5,2596.5C 765.638,2447.73 824.304,2327.57 940.5,2236C 1011.09,2183.74 1090.43,2153.74 1178.5,2146C 1213.57,2144.73 1248.57,2145.73 1283.5,2149C 1293.3,2149.92 1302.96,2151.59 1312.5,2154C 1323.48,2157 1334.48,2159.83 1345.5,2162.5C 1345.81,1789.83 1346.47,1417.17 1347.5,1044.5 Z"/></g>
<g><path style="opacity:1" fill="#858585" d="M 1976.5,630.5 C 1976.5,768.5 1976.5,906.5 1976.5,1044.5C 1976.5,1145.17 1976.5,1245.83 1976.5,1346.5C 2079.67,1346.17 2182.67,1346.5 2285.5,1347.5C 2182.5,1347.5 2079.5,1347.5 1976.5,1347.5C 1976.82,1352.69 1976.49,1357.69 1975.5,1362.5C 1975.5,1357.5 1975.5,1352.5 1975.5,1347.5C 1869.5,1347.5 1763.5,1347.5 1657.5,1347.5C 1763.33,1346.5 1869.33,1346.17 1975.5,1346.5C 1975.5,1245.83 1975.5,1145.17 1975.5,1044.5C 1766.17,1044.5 1556.83,1044.5 1347.5,1044.5C 1556.67,1043.5 1766,1043.17 1975.5,1043.5C 1975.17,905.666 1975.5,767.999 1976.5,630.5 Z"/></g>
<g><path style="opacity:1" fill="#252525" d="M 1657.5,1347.5 C 1763.5,1347.5 1869.5,1347.5 1975.5,1347.5C 1975.5,1352.5 1975.5,1357.5 1975.5,1362.5C 1974.81,1467.17 1974.48,1571.83 1974.5,1676.5C 1973.83,1700.5 1973.17,1724.5 1972.5,1748.5C 1865.03,1719.48 1760.03,1726.48 1657.5,1769.5C 1657.5,1628.83 1657.5,1488.17 1657.5,1347.5 Z"/></g>
<g><path style="opacity:1" fill="#fefefe" d="M 2285.5,1347.5 C 2285.33,1594.83 2285.5,1842.17 2286,2089.5C 2318.94,2272.32 2264.11,2422.49 2121.5,2540C 2039.41,2602.75 1946.41,2633.92 1842.5,2633.5C 1797.7,2633.4 1753.7,2627.57 1710.5,2616C 1695.48,2611.32 1680.81,2605.82 1666.5,2599.5C 1665.63,2566.98 1662.63,2534.64 1657.5,2502.5C 1657.5,2258.17 1657.5,2013.83 1657.5,1769.5C 1760.03,1726.48 1865.03,1719.48 1972.5,1748.5C 1972.56,1749.04 1972.89,1749.38 1973.5,1749.5C 1974.5,1725.18 1974.83,1700.84 1974.5,1676.5C 1974.48,1571.83 1974.81,1467.17 1975.5,1362.5C 1976.49,1357.69 1976.82,1352.69 1976.5,1347.5C 2079.5,1347.5 2182.5,1347.5 2285.5,1347.5 Z"/></g>
<g><path style="opacity:1" fill="#afafaf" d="M 1974.5,1676.5 C 1974.83,1700.84 1974.5,1725.18 1973.5,1749.5C 1972.89,1749.38 1972.56,1749.04 1972.5,1748.5C 1973.17,1724.5 1973.83,1700.5 1974.5,1676.5 Z"/></g>
<g><path style="opacity:1" fill="#252525" d="M 1655.5,1770.5 C 1656.17,2014.5 1656.83,2258.5 1657.5,2502.5C 1662.63,2534.64 1665.63,2566.98 1666.5,2599.5C 1643.49,2589.83 1621.49,2578.33 1600.5,2565C 1516.97,2509.78 1456.81,2435.61 1420,2342.5C 1382.77,2233.9 1383.43,2125.57 1422,2017.5C 1468.15,1905.19 1545.98,1822.85 1655.5,1770.5 Z"/></g>
<g><path style="opacity:1" fill="#585858" d="M 1655.5,1770.5 C 1655.84,1769.66 1656.51,1769.33 1657.5,1769.5C 1657.5,2013.83 1657.5,2258.17 1657.5,2502.5C 1656.83,2258.5 1656.17,2014.5 1655.5,1770.5 Z"/></g>
</svg>
