<?xml version="1.0" encoding="UTF-8"?>
<!DOCTYPE svg PUBLIC "-//W3C//DTD SVG 1.1//EN" "http://www.w3.org/Graphics/SVG/1.1/DTD/svg11.dtd">
<svg xmlns="http://www.w3.org/2000/svg" version="1.1" width="3780px" height="3780px" style="shape-rendering:geometricPrecision; text-rendering:geometricPrecision; image-rendering:optimizeQuality; fill-rule:evenodd; clip-rule:evenodd" xmlns:xlink="http://www.w3.org/1999/xlink">
<g><path style="opacity:0.997" fill="#fffffe" d="M 1975.5,630.5 C 2289.17,630.5 2602.83,630.5 2916.5,630.5C 2918.23,768.499 2919.89,906.499 2921.5,1044.5C 2606.5,1044.5 2291.5,1044.5 1976.5,1044.5C 1976.5,1145.17 1976.5,1245.83 1976.5,1346.5C 2079.83,1346.5 2183.17,1346.5 2286.5,1346.5C 2286.33,1595.17 2286.5,1843.83 2287,2092.5C 2319.52,2280.69 2260.69,2432.86 2110.5,2549C 2038.82,2601.01 1958.49,2629.01 1869.5,2633C 1815.22,2636.04 1761.88,2630.38 1709.5,2616C 1695.31,2611.33 1681.31,2606.16 1667.5,2600.5C 1667.66,2711.43 1631.49,2808.43 1559,2891.5C 1524.91,2930.28 1486.08,2963.12 1442.5,2990C 1372.24,3029.27 1296.74,3048.44 1216,3047.5C 1051.93,3044.32 924.262,2975.32 833,2840.5C 791.914,2775.9 769.247,2705.24 765,2628.5C 756.669,2452 824.836,2314.17 969.5,2215C 1071.45,2153.14 1181.45,2131.81 1299.5,2151C 1314.67,2153.67 1329.5,2157.5 1344,2162.5C 1344.17,2146.59 1344.67,2130.76 1345.5,2115C 1344.67,2110.96 1344.33,2106.79 1344.5,2102.5C 1345.62,1749.54 1346.62,1396.54 1347.5,1043.5C 1556.83,1043.5 1766.17,1043.5 1975.5,1043.5C 1975.5,905.833 1975.5,768.167 1975.5,630.5 Z M 1657.5,1347.5 C 1763.5,1347.5 1869.5,1347.5 1975.5,1347.5C 1974.99,1481.17 1973.99,1614.84 1972.5,1748.5C 1929.94,1735.97 1886.44,1729.97 1842,1730.5C 1778.28,1730.89 1717.11,1743.56 1658.5,1768.5C 1657.5,1628.17 1657.17,1487.83 1657.5,1347.5 Z M 1655.5,1770.5 C 1656.33,2014.67 1656.83,2259 1657,2503.5C 1662.64,2534.94 1665.31,2566.6 1665,2598.5C 1570.77,2556.28 1498.11,2490.28 1447,2400.5C 1405.7,2323.01 1388.03,2240.34 1394,2152.5C 1403.14,2028.06 1453.97,1924.56 1546.5,1842C 1579.51,1813.16 1615.84,1789.32 1655.5,1770.5 Z"/></g>
</svg>
